<?xml version="1.0" encoding="UTF-8"?>
<svg width="14" height="15" viewBox="0 0 14 15" fill="none" xmlns="http://www.w3.org/2000/svg">
    <path fill-rule="evenodd" clip-rule="evenodd" d="M9.45704 4.32087H11.55V12.75H2.625V4.32087H4.71796C4.94807 3.2245 5.92487 2.39587 7.0875 2.39587C8.25013 2.39587 9.22694 3.2245 9.45704 4.32087ZM8.55105 4.32087C8.35295 3.74177 7.81866 3.31392 7.18478 3.27393L7.0875 3.27087C6.41145 3.27087 5.8321 3.71237 5.62395 4.32087H8.55105ZM10.6744 5.19529H3.49942V11.8745H10.6744V5.19529Z" fill="black"/>
    <path d="M11.55 4.32087H11.7V4.17087H11.55V4.32087ZM9.45704 4.32087L9.31024 4.35168L9.33526 4.47087H9.45704V4.32087ZM11.55 12.75V12.9H11.7V12.75H11.55ZM2.625 12.75H2.475V12.9H2.625V12.75ZM2.625 4.32087V4.17087H2.475V4.32087H2.625ZM4.71796 4.32087V4.47087H4.83974L4.86476 4.35168L4.71796 4.32087ZM8.55105 4.32087V4.47087H8.7609L8.69298 4.27232L8.55105 4.32087ZM7.18478 3.27393L7.19423 3.12416L7.1895 3.12401L7.18478 3.27393ZM7.0875 3.27087L7.09222 3.12087H7.0875V3.27087ZM5.62395 4.32087L5.48202 4.27232L5.4141 4.47087H5.62395V4.32087ZM3.49942 5.19529V5.04529H3.34942V5.19529H3.49942ZM10.6744 5.19529H10.8244V5.04529H10.6744V5.19529ZM3.49942 11.8745H3.34942V12.0245H3.49942V11.8745ZM10.6744 11.8745V12.0245H10.8244V11.8745H10.6744ZM11.55 4.17087H9.45704V4.47087H11.55V4.17087ZM11.7 12.75V4.32087H11.4V12.75H11.7ZM2.625 12.9H11.55V12.6H2.625V12.9ZM2.475 4.32087V12.75H2.775V4.32087H2.475ZM4.71796 4.17087H2.625V4.47087H4.71796V4.17087ZM4.86476 4.35168C5.08064 3.3231 5.99752 2.54587 7.0875 2.54587V2.24587C5.85221 2.24587 4.81549 3.1259 4.57116 4.29006L4.86476 4.35168ZM7.0875 2.54587C8.17748 2.54587 9.09436 3.3231 9.31024 4.35168L9.60384 4.29006C9.35951 3.1259 8.32279 2.24587 7.0875 2.24587V2.54587ZM8.69298 4.27232C8.47585 3.6376 7.89053 3.16816 7.19422 3.12423L7.17533 3.42364C7.7468 3.45969 8.23005 3.84594 8.40913 4.36942L8.69298 4.27232ZM7.1895 3.12401L7.09222 3.12095L7.08278 3.4208L7.18006 3.42386L7.1895 3.12401ZM7.0875 3.12087C6.34487 3.12087 5.71013 3.60549 5.48202 4.27232L5.76587 4.36942C5.95408 3.81925 6.47803 3.42087 7.0875 3.42087V3.12087ZM8.55105 4.17087H5.62395V4.47087H8.55105V4.17087ZM3.49942 5.34529H10.6744V5.04529H3.49942V5.34529ZM3.64942 11.8745V5.19529H3.34942V11.8745H3.64942ZM10.6744 11.7245H3.49942V12.0245H10.6744V11.7245ZM10.5244 5.19529V11.8745H10.8244V5.19529H10.5244Z" fill="black"/>
    <path fill-rule="evenodd" clip-rule="evenodd" d="M7.43642 8.09021V6.09998H6.65695V8.09021H4.66666V8.86968H6.65695V10.8597H7.43642V8.86968H9.42641V8.09021H7.43642Z" fill="black"/>
    <path d="M7.43642 6.09998H7.58642V5.94998H7.43642V6.09998ZM7.43642 8.09021H7.28642V8.24021H7.43642V8.09021ZM6.65695 6.09998V5.94998H6.50695V6.09998H6.65695ZM6.65695 8.09021V8.24021H6.80695V8.09021H6.65695ZM4.66666 8.09021V7.94021H4.51666V8.09021H4.66666ZM4.66666 8.86968H4.51666V9.01968H4.66666V8.86968ZM6.65695 8.86968H6.80695V8.71968H6.65695V8.86968ZM6.65695 10.8597H6.50695V11.0097H6.65695V10.8597ZM7.43642 10.8597V11.0097H7.58642V10.8597H7.43642ZM7.43642 8.86968V8.71968H7.28642V8.86968H7.43642ZM9.42641 8.86968V9.01968H9.57641V8.86968H9.42641ZM9.42641 8.09021H9.57641V7.94021H9.42641V8.09021ZM7.28642 6.09998V8.09021H7.58642V6.09998H7.28642ZM6.65695 6.24998H7.43642V5.94998H6.65695V6.24998ZM6.80695 8.09021V6.09998H6.50695V8.09021H6.80695ZM4.66666 8.24021H6.65695V7.94021H4.66666V8.24021ZM4.81666 8.86968V8.09021H4.51666V8.86968H4.81666ZM6.65695 8.71968H4.66666V9.01968H6.65695V8.71968ZM6.80695 10.8597V8.86968H6.50695V10.8597H6.80695ZM7.43642 10.7097H6.65695V11.0097H7.43642V10.7097ZM7.28642 8.86968V10.8597H7.58642V8.86968H7.28642ZM9.42641 8.71968H7.43642V9.01968H9.42641V8.71968ZM9.27641 8.09021V8.86968H9.57641V8.09021H9.27641ZM7.43642 8.24021H9.42641V7.94021H7.43642V8.24021Z" fill="black"/>
</svg>